<?xml version="1.0" standalone="no"?>
<!DOCTYPE svg PUBLIC "-//W3C//DTD SVG 20010904//EN"
 "http://www.w3.org/TR/2001/REC-SVG-20010904/DTD/svg10.dtd">
<svg version="1.0" xmlns="http://www.w3.org/2000/svg"
 width="200.000000pt" height="200.000000pt" viewBox="0 0 200.000000 200.000000"
 preserveAspectRatio="xMidYMid meet">
<metadata>
Created by potrace 1.16, written by Peter Selinger 2001-2019
</metadata>
<g transform="translate(0.000000,200.000000) scale(0.100000,-0.100000)"
fill="#000000" stroke="none">
<path d="M222 1858 c-31 -52 -50 -103 -67 -183 -20 -99 -20 -293 1 -370 21
-80 22 -139 5 -267 -13 -95 -13 -117 2 -207 89 -545 628 -856 1148 -662 226
85 419 294 499 541 28 85 37 260 21 389 -11 87 -11 105 8 195 38 181 19 402
-46 533 -47 96 -64 88 -166 -78 -43 -70 -76 -99 -111 -99 -7 0 -62 24 -122 54
-143 72 -244 96 -392 96 -156 0 -261 -25 -400 -97 -87 -44 -112 -53 -139 -48
-36 7 -40 11 -124 143 -66 103 -85 112 -117 60z m983 -281 c181 -63 302 -170
385 -342 46 -95 63 -171 63 -280 0 -113 -18 -186 -70 -294 -37 -74 -62 -109
-118 -165 -128 -127 -259 -186 -431 -194 -367 -17 -660 245 -691 618 -12 147
60 352 167 472 68 76 180 150 277 181 106 35 113 36 238 32 85 -2 126 -9 180
-28z"/>
<path d="M800 1230 c0 -5 30 -60 67 -122 36 -62 66 -117 66 -123 0 -5 -42 -74
-92 -152 -51 -78 -90 -147 -86 -152 3 -6 40 -11 84 -11 l78 0 47 75 c26 41 51
77 56 80 4 3 29 -31 55 -75 l47 -80 73 0 c46 0 76 5 82 13 10 12 -30 88 -224
415 l-84 142 -84 0 c-49 0 -85 -4 -85 -10z"/>
</g>
</svg>
